<?xml version="1.0" encoding="UTF-8" standalone="no"?>
<!-- Created with Inkscape (http://www.inkscape.org/) -->

<svg
   version="1.1"
   id="svg1"
   width="394"
   height="417"
   viewBox="0 0 394 417"
   sodipodi:docname="lookowl.svg"
   inkscape:version="1.4.2 (ebf0e940, 2025-05-08)"
   xmlns:inkscape="http://www.inkscape.org/namespaces/inkscape"
   xmlns:sodipodi="http://sodipodi.sourceforge.net/DTD/sodipodi-0.dtd"
   xmlns="http://www.w3.org/2000/svg"
   xmlns:svg="http://www.w3.org/2000/svg">
  <defs
     id="defs1" />
  <sodipodi:namedview
     id="namedview1"
     pagecolor="#ffffff"
     bordercolor="#000000"
     borderopacity="0.25"
     inkscape:showpageshadow="2"
     inkscape:pageopacity="0.0"
     inkscape:pagecheckerboard="0"
     inkscape:deskcolor="#d1d1d1"
     inkscape:zoom="0.50143912"
     inkscape:cx="219.3686"
     inkscape:cy="235.32269"
     inkscape:window-width="1064"
     inkscape:window-height="533"
     inkscape:window-x="263"
     inkscape:window-y="159"
     inkscape:window-maximized="0"
     inkscape:current-layer="g1" />
  <g
     inkscape:groupmode="layer"
     inkscape:label="Image"
     id="g1">
    <path
       style="fill:#000000"
       d="m 178.98851,398.92931 c -3.575,-0.45887 -9.875,-1.58091 -14,-2.49342 -4.125,-0.91252 -11.2827,-2.99251 -15.90601,-4.62221 -4.6233,-1.6297 -12.18821,-4.76001 -16.8109,-6.95625 -4.6227,-2.19624 -12.98999,-7.06453 -18.594,-10.81842 -5.604,-3.75389 -13.50949,-9.75384 -17.567756,-13.33323 -4.05827,-3.57939 -10.48433,-10.03611 -14.28013,-14.34827 -3.79579,-4.31216 -9.30244,-11.44029 -12.23699,-15.84029 -2.93455,-4.4 -7.23218,-11.77447 -9.55028,-16.38772 -2.31811,-4.61325 -5.94268,-13.61325 -8.05462,-20 -2.11193,-6.38675 -4.55074,-15.85408 -5.41959,-21.0385 -0.95523,-5.69991 -1.57971,-15.41424 -1.57971,-24.57378 0,-9.37092 0.61497,-18.74233 1.61258,-24.57378 0.88692,-5.18442 2.39517,-11.95085 3.35165,-15.0365 l 1.73907,-5.61028 -4.75373,-9.6797 c -2.61455,-5.32384 -5.5853,-12.92422 -6.60165,-16.88972 -1.44317,-5.63078 -1.847,-10.9336 -1.84372,-24.21002 0.004,-14.72079 0.31022,-18.0585 2.28673,-24.89503 1.25539,-4.34227 3.78508,-11.14712 5.62154,-15.1219 1.83645,-3.97477 5.27495,-10.097 7.6411,-13.604963 2.36615,-3.50796 7.36466,-9.55454 11.1078,-13.43684 l 6.8057,-7.05873 -4.23354,-2.06609 c -2.32844,-1.13634 -7.04898,-4.18776 -10.49007,-6.78094 -3.44109,-2.59317 -7.77542,-6.587 -9.63184,-8.87518 -1.85643,-2.28818 -4.50331,-6.41033 -5.88195,-9.16033 -1.37864,-2.75 -3.23181,-7.44417 -4.11815,-10.4315 -0.88634,-2.98733 -1.61152,-6.69983 -1.61152,-8.25 0,-1.55017 0.33844,-2.8185 0.7521,-2.8185 0.41366,0 5.47616,1.37779 11.25,3.06175 5.77384,1.68396 23.32289,6.32724 38.99789,10.3184 l 28.499996,7.25666 8.5,-3.36686 c 4.675,-1.85177 13.08531,-4.6655 18.68957,-6.25273 5.60426,-1.58724 15.95426,-3.89215 23,-5.12204 10.04058,-1.75265 16.81047,-2.24652 31.31044,-2.28414 12.98479,-0.0337 21.8997,0.48133 29.90383,1.72757 6.2721,0.97656 16.40856,3.06598 22.52547,4.64316 6.1169,1.57718 15.61018,4.55506 21.09617,6.61753 l 9.97453,3.74993 22.5,-5.64735 c 12.375,-3.10604 29.86623,-7.72089 38.8694,-10.25522 10.16655,-2.86181 16.72407,-4.25319 17.30538,-3.67188 0.58131,0.58131 0.33891,3.51049 -0.63969,7.73015 -0.86662,3.7368 -2.92843,9.62862 -4.5818,13.09294 -1.65336,3.46432 -5.35673,8.87306 -8.2297,12.01943 -2.87298,3.14637 -7.47359,7.14933 -10.22359,8.89547 -2.75,1.74614 -7.25,4.0326 -10,5.08102 -3.73725,1.4248 -4.44776,1.98482 -2.81335,2.21746 1.20266,0.17119 5.02766,3.32572 8.5,7.01008 3.47234,3.68436 8.09497,9.38735 10.2725,12.67332 2.17754,3.285973 5.41776,8.935253 7.20049,12.553963 1.78274,3.61871 4.42201,10.60065 5.86504,15.51543 1.87008,6.36921 2.78765,12.29725 3.19445,20.63803 0.3552,7.28286 0.10644,14.58017 -0.65871,19.3233 -0.67619,4.19169 -2.28543,10.72601 -3.5761,14.52072 -1.29066,3.79471 -3.96568,9.98048 -5.94449,13.74616 l -3.59783,6.84669 2.48359,9.28039 c 1.36598,5.10421 3.01567,13.84795 3.66597,19.43053 0.69394,5.95713 0.94441,15.52042 0.60633,23.15014 -0.31682,7.15 -1.30802,16.77695 -2.20266,21.39322 -0.89465,4.61627 -3.12661,12.97225 -4.95992,18.56886 -1.83331,5.5966 -5.46077,14.41966 -8.06101,19.60678 -2.60025,5.18713 -7.43833,13.39557 -10.75129,18.24099 -3.31296,4.84542 -10.30557,13.31327 -15.53912,18.81744 -5.23356,5.50417 -14.1845,13.51319 -19.89098,17.79783 -5.70649,4.28464 -14.74436,10.06937 -20.08417,12.85496 -5.33981,2.78559 -13.17403,6.43616 -17.40939,8.11237 -4.23536,1.67622 -12.11036,4.16165 -17.5,5.52318 -5.38964,1.36154 -13.61254,2.95002 -18.27312,3.52995 -4.66057,0.57993 -13.43557,0.99736 -19.5,0.92762 -6.06442,-0.0697 -13.95124,-0.50225 -17.52624,-0.96111 z m 42.50001,-25.38762 c 4.4,-0.89116 12.19256,-2.99585 17.3168,-4.6771 7.65328,-2.51101 9.19683,-3.35058 8.64487,-4.70209 -0.36957,-0.9049 -1.76261,-4.79528 -3.09565,-8.64528 -1.33304,-3.85 -3.37246,-11.5 -4.53203,-17 -1.59937,-7.58601 -2.11222,-13.62098 -2.12447,-25 -0.0125,-11.63611 0.44913,-17.03918 2.05855,-24.09295 1.14108,-5.00112 3.58171,-13.10112 5.42362,-18 1.84192,-4.89888 5.0606,-11.96472 7.15263,-15.70186 2.09202,-3.73715 6.02038,-9.72348 8.72968,-13.30296 2.7093,-3.57948 4.926,-6.70931 4.926,-6.95519 0,-0.24587 -1.02154,-0.44704 -2.2701,-0.44704 -1.24855,0 -5.60578,-0.92437 -9.68273,-2.05414 -4.07695,-1.12978 -10.73967,-3.59134 -14.80605,-5.47012 -4.06638,-1.87878 -10.90942,-5.8797 -15.20677,-8.89093 l -7.81335,-5.47496 -2.15759,5.19508 c -1.18667,2.85729 -5.10917,10.27915 -8.71665,16.49302 -3.60748,6.21387 -7.07379,11.12855 -7.70291,10.9215 -0.62912,-0.20704 -3.93437,-5.06612 -7.345,-10.79795 -3.41064,-5.73182 -7.17802,-13.009 -8.37194,-16.1715 -1.19392,-3.1625 -2.33964,-5.75 -2.54604,-5.75 -0.20639,0 -3.18903,2.09085 -6.62807,4.64634 -3.43905,2.55549 -10.75281,6.79945 -16.25281,9.43103 -5.5,2.63158 -12.76496,5.49072 -16.14434,6.35366 -3.37939,0.86293 -7.09189,1.56897 -8.25,1.56897 -1.15812,0 -2.10566,0.19604 -2.10566,0.43564 0,0.23961 2.69522,4.17711 5.98938,8.75 3.29415,4.5729 7.76009,11.91436 9.92429,16.31436 2.16421,4.4 5.07716,11.40422 6.47323,15.56492 1.39607,4.16071 3.23014,11.53216 4.07571,16.38099 0.84556,4.84884 1.53739,14.30283 1.53739,21.00886 0,6.70604 -0.70938,16.4346 -1.57641,21.61901 -0.86702,5.18442 -3.14696,14.08379 -5.06652,19.77637 -1.91955,5.69258 -3.34767,10.49241 -3.17359,10.66628 0.17409,0.17387 2.63641,1.23044 5.47183,2.34793 2.83543,1.1175 7.9517,2.75643 11.36951,3.64207 3.4178,0.88564 10.09791,2.24714 14.84468,3.02555 5.48432,0.89936 13.1873,1.26902 21.13051,1.01404 6.875,-0.22069 16.1,-1.13039 20.5,-2.02155 z m -91.99743,-27.53221 c 1.46675,-4.40426 3.28801,-11.49176 4.04723,-15.75 0.75923,-4.25824 1.39611,-12.31517 1.4153,-17.90429 0.0192,-5.58912 -0.59926,-13.46412 -1.37432,-17.5 -0.77507,-4.03588 -2.40562,-10.26297 -3.62344,-13.83797 -1.21782,-3.575 -3.7368,-9.425 -5.59773,-13 -1.86093,-3.575 -5.65434,-9.52163 -8.42979,-13.21473 -2.77546,-3.6931 -8.28483,-9.42953 -12.24305,-12.74761 -3.958226,-3.31809 -10.952596,-7.84215 -15.543046,-10.05347 -4.59045,-2.21133 -10.27522,-5.34774 -12.63282,-6.96981 l -4.28654,-2.94922 -1.32113,8.21742 c -0.72662,4.51958 -1.29853,13.39242 -1.27092,19.71742 0.0282,6.45074 0.7925,15.35275 1.74084,20.27488 0.92986,4.82619 3.07579,12.70119 4.76874,17.5 1.69295,4.79882 4.65019,11.87512 6.57166,15.72512 1.92146,3.85 5.89143,10.6 8.82216,15 2.93073,4.4 8.16938,11.12302 11.641436,14.94004 3.47206,3.81702 10.13784,9.9917 14.81284,13.72151 4.675,3.72982 8.80055,6.7943 9.16788,6.80996 0.36733,0.0157 1.86795,-3.57499 3.3347,-7.97925 z m 157.32916,-6.49226 c 4.62363,-4.4 11.20905,-11.73301 14.63427,-16.29559 3.42522,-4.56257 8.28647,-12.21257 10.80278,-17 2.5163,-4.78742 5.52775,-11.17941 6.6921,-14.20441 1.16435,-3.025 3.2433,-10 4.61989,-15.5 1.65373,-6.60731 2.70365,-14.24087 3.09463,-22.5 0.35957,-7.59565 0.12201,-16.01092 -0.60549,-21.44849 -0.65847,-4.92167 -1.40568,-9.28578 -1.66046,-9.69802 -0.25478,-0.41224 -2.36363,0.52926 -4.68634,2.09222 -2.32271,1.56297 -6.95206,4.16048 -10.28745,5.77224 -3.33539,1.61177 -8.28539,4.44666 -11,6.29975 -2.71461,1.85309 -7.66442,6.09469 -10.99958,9.42577 -3.33515,3.33109 -8.00357,8.92668 -10.37425,12.43464 -2.37069,3.50796 -5.8129,9.63019 -7.64936,13.60496 -1.83646,3.97478 -4.36333,10.77963 -5.61528,15.1219 -1.97082,6.83565 -2.27555,10.17615 -2.27099,24.89503 0.005,15.33305 0.26547,17.93153 2.65892,26.5 1.45951,5.225 3.13953,10.76575 3.73338,12.31277 l 1.07973,2.81277 4.71345,-3.31277 c 2.5924,-1.82202 8.49642,-6.91277 13.12005,-11.31277 z M 133.78067,212.45111 c 4.23931,-0.86136 11.30784,-3.30349 15.70784,-5.42694 4.4,-2.12346 10.66553,-6.24924 13.92339,-9.16842 3.25786,-2.91917 7.66091,-7.99586 9.78454,-11.28153 2.12363,-3.28567 4.80614,-9.08512 5.96113,-12.88767 1.65102,-5.43564 1.988,-8.54447 1.57621,-14.54153 -0.32759,-4.77086 -1.45707,-9.92366 -3.01561,-13.75756 -1.37051,-3.37137 -4.29485,-8.77137 -6.49854,-12 -2.20369,-3.22863 -7.3197,-9.03763 -11.36891,-12.90889 -4.04922,-3.87125 -9.61221,-8.64254 -12.36221,-10.60286 -2.75,-1.96033 -7.925,-5.1774 -11.5,-7.14906 -3.575,-1.97167 -9.875,-4.931443 -14,-6.577283 -4.125,-1.64584 -10.74472,-3.89027 -14.71048,-4.98763 l -7.21047,-1.9952 -6.155766,3.97866 c -3.38566,2.18827 -8.60225,6.29246 -11.59241,9.120433 -2.99016,2.82797 -7.46549,8.19355 -9.94517,11.92352 -2.47968,3.72997 -5.87947,10.50469 -7.55508,15.05492 -2.43832,6.62138 -3.15268,10.41002 -3.57798,18.97601 -0.32762,6.59867 -0.0617,13.1176 0.69348,17 0.67369,3.46343 2.91245,9.91412 4.97504,14.33487 2.55016,5.46577 5.75745,10.18353 10.02319,14.74363 3.45017,3.68823 8.87456,8.28623 12.05421,10.21776 3.17965,1.93154 7.74324,4.22048 10.14131,5.08654 2.398066,0.86607 7.060126,2.17782 10.360126,2.915 3.3,0.73719 8.38147,1.37612 11.29216,1.41984 2.91069,0.0437 8.76069,-0.62525 13,-1.48661 z m -20.05769,-27.52194 c -2.07105,-0.48793 -5.60328,-1.8247 -7.84942,-2.97059 -2.24613,-1.14589 -6.003186,-3.85261 -8.349026,-6.01492 -2.47146,-2.27812 -5.47666,-6.55883 -7.14594,-10.17896 -2.45822,-5.33105 -2.88147,-7.49741 -2.88543,-14.76851 -0.004,-7.61998 0.34346,-9.22813 3.28735,-15.20802 1.94651,-3.95392 4.95624,-8.11153 7.36388,-10.17238 2.239526,-1.91695 6.158126,-4.48326 8.707996,-5.7029 3.17514,-1.51873 7.15715,-2.35494 12.63612,-2.65354 6.49124,-0.35378 9.0753,-0.0304 13.70163,1.71468 3.17717,1.19845 7.92332,4.14818 10.71943,6.66212 3.19757,2.8749 6.20783,6.92991 8.29837,11.17845 2.94844,5.99204 3.27583,7.52936 3.23376,15.18482 -0.0395,7.18406 -0.47702,9.40878 -2.79431,14.20795 -1.67846,3.47615 -4.8918,7.64993 -8.25851,10.72691 -4.13165,3.7761 -7.15042,5.54311 -12.06102,7.05985 -3.60251,1.1127 -8.41512,1.97789 -10.69469,1.92264 -2.27956,-0.0553 -5.83915,-0.49967 -7.91019,-0.9876 z m 172.73685,27.57661 c 3.83422,-0.81219 10.13422,-2.98678 14,-4.83241 3.86578,-1.84564 9.37463,-5.22068 12.24189,-7.50009 2.86726,-2.27941 6.99775,-6.50951 9.17888,-9.40022 2.18112,-2.89071 5.31588,-7.97901 6.96614,-11.30734 1.65025,-3.32832 3.7668,-9.83355 4.70345,-14.45607 1.19702,-5.90754 1.52491,-10.71379 1.10362,-16.17695 -0.32965,-4.2748 -1.32805,-10.59457 -2.21868,-14.04392 -0.89062,-3.44936 -3.47644,-9.87156 -5.74626,-14.27156 -3.09298,-5.99566 -6.26884,-10.12961 -12.67596,-16.5 -4.70195,-4.675003 -11.03018,-9.956353 -14.06273,-11.736323 l -5.51373,-3.23633 -7.40129,2.0945 c -4.07071,1.15198 -10.97719,3.60263 -15.34774,5.4459 -4.37056,1.84327 -11.02415,5.179823 -14.78578,7.414553 -3.76162,2.23474 -10.21515,6.74583 -14.34119,10.02463 -4.12603,3.27881 -9.94734,8.92622 -12.93623,12.54979 -2.9889,3.62358 -6.81562,9.17984 -8.50384,12.34726 -1.68821,3.16741 -3.75851,8.40432 -4.60067,11.63757 -0.84215,3.23326 -1.53119,8.7233 -1.53119,12.20009 0,3.75252 0.84734,8.84853 2.08508,12.53991 1.14679,3.42015 2.9867,7.68615 4.08869,9.48 1.102,1.79386 3.54926,5.11156 5.43837,7.37268 1.88911,2.26111 5.64727,5.87275 8.35146,8.02586 2.70419,2.15311 8.20614,5.42432 12.22656,7.26935 4.02041,1.84504 9.78484,3.84877 12.80984,4.45274 3.025,0.60397 6.4,1.27536 7.5,1.49198 1.1,0.21661 4.25,0.43822 7,0.49248 2.75,0.0543 8.13709,-0.56589 11.97131,-1.37808 z m -21.74805,-27.90826 c -2.62721,-0.70659 -7.22848,-2.97328 -10.22504,-5.03709 -2.99656,-2.06381 -6.78839,-5.77555 -8.42628,-8.24831 -1.63789,-2.47277 -3.72159,-6.73473 -4.63044,-9.47103 -1.13108,-3.40535 -1.53023,-7.23876 -1.26505,-12.14948 0.27003,-5.00059 1.18005,-8.88569 3.00344,-12.82235 1.43882,-3.10638 4.50787,-7.5398 6.82011,-9.85204 2.31224,-2.31224 6.74566,-5.38394 9.85204,-6.82599 4.08123,-1.89461 7.72844,-2.72277 13.14796,-2.98547 5.86941,-0.2845 8.7396,0.10199 13.20163,1.77771 3.19356,1.19934 7.9089,4.12577 10.71943,6.65268 3.16012,2.84122 6.20796,6.92901 8.23258,11.04159 2.77735,5.64161 3.21478,7.57957 3.21478,14.24259 0,6.52554 -0.47483,8.72713 -3.08546,14.30591 -1.697,3.62642 -4.90597,8.41399 -7.13103,10.63905 -2.22506,2.22506 -5.532,4.8146 -7.34875,5.75452 -1.81675,0.93993 -5.55318,2.30852 -8.30318,3.04132 -2.75,0.73279 -6.8,1.30732 -9,1.27673 -2.2,-0.0306 -6.14954,-0.63375 -8.77674,-1.34034 z"
       id="path1" />
  </g>
</svg>
